HIERARCHY
ROOT Hips
{
	OFFSET 0.000000 0.000000 0.000000
	CHANNELS 6 Xposition Yposition Zposition Zrotation Yrotation Xrotation 
	JOINT LowerBack
	{
		OFFSET 0.000000 0.000000 0.000000
		CHANNELS 3 Zrotation Yrotation Xrotation
		JOINT Spine
		{
			OFFSET 0.028270 2.035590 -0.193380
			CHANNELS 3 Zrotation Yrotation Xrotation
			JOINT Spine1
			{
				OFFSET 0.056720 2.048850 -0.042750
				CHANNELS 3 Zrotation Yrotation Xrotation
				JOINT Neck
				{
					OFFSET 0.000000 0.000000 0.000000
					CHANNELS 3 Zrotation Yrotation Xrotation
					JOINT Neck1
					{
						OFFSET -0.054170 1.746240 0.172020
						CHANNELS 3 Zrotation Yrotation Xrotation
						JOINT Head
						{
							OFFSET 0.104070 1.761360 -0.123970
							CHANNELS 3 Zrotation Yrotation Xrotation
							End Site
							{
								OFFSET 0.000000 0.000000 0.000000
							}
						}
					}
				}
				JOINT LeftShoulder
				{
					OFFSET 0.000000 0.000000 0.000000
					CHANNELS 3 Zrotation Yrotation Xrotation
					JOINT LeftArm
					{
						OFFSET 3.362410 1.200890 -0.311210
						CHANNELS 3 Zrotation Yrotation Xrotation
						JOINT LeftForeArm
						{
							OFFSET 4.983000 -0.000000 -0.000000
							CHANNELS 3 Zrotation Yrotation Xrotation
							JOINT LeftHand
							{
								OFFSET 3.483560 -0.000000 -0.000000
								CHANNELS 3 Zrotation Yrotation Xrotation
								JOINT LeftFingerBase
								{
									OFFSET 0.000000 0.000000 0.000000
									CHANNELS 3 Zrotation Yrotation Xrotation
									JOINT LeftHandIndex1
									{
										OFFSET 0.715260 -0.000000 -0.000000
										CHANNELS 3 Zrotation Yrotation Xrotation
										End Site
										{
											OFFSET 0.000000 0.000000 0.000000
										}
									}
								}
								JOINT LThumb
								{
									OFFSET 0.000000 0.000000 0.000000
									CHANNELS 3 Zrotation Yrotation Xrotation
									End Site
									{
										OFFSET 0.000000 0.000000 0.000000
									}
								}
							}
						}
					}
				}
				JOINT RightShoulder
				{
					OFFSET 0.000000 0.000000 0.000000
					CHANNELS 3 Zrotation Yrotation Xrotation
					JOINT RightArm
					{
						OFFSET -3.136600 1.374050 -0.404650
						CHANNELS 3 Zrotation Yrotation Xrotation
						JOINT RightForeArm
						{
							OFFSET -5.241900 -0.000000 -0.000000
							CHANNELS 3 Zrotation Yrotation Xrotation
							JOINT RightHand
							{
								OFFSET -3.444170 -0.000000 -0.000000
								CHANNELS 3 Zrotation Yrotation Xrotation
								JOINT RightFingerBase
								{
									OFFSET 0.000000 0.000000 0.000000
									CHANNELS 3 Zrotation Yrotation Xrotation
									JOINT RightHandIndex1
									{
										OFFSET -0.622530 -0.000000 -0.000000
										CHANNELS 3 Zrotation Yrotation Xrotation
										End Site
										{
											OFFSET 0.000000 0.000000 0.000000
										}
									}
								}
								JOINT RThumb
								{
									OFFSET 0.000000 0.000000 0.000000
									CHANNELS 3 Zrotation Yrotation Xrotation
									End Site
									{
										OFFSET 0.000000 0.000000 0.000000
									}
								}
							}
						}
					}
				}
			}
		}
	}
}
}
MOTION
Frames: 18
Frame Time: 0.008333
4.799694 20.555222 0.601953 21.832778 -79.030146 -2.102723 -4.004856 -1.810337 -14.103356 -1.178886 -1.789878 -5.800743 -3.650757 -1.947771 -1.555464 8.752846 -6.495609 -2.883855 -0.290596 -0.110952 1.417022 0.000000 0.000000 0.000000 18.485124 8.860558 -3.946986 -13.095164 -45.684094 -33.272121 176.881176 -56.019596 179.568818 37.422875 -48.315907 -18.314142 -0.451648 1.972412 -0.000000 0.000000 0.000000 0.000000 0.000000 0.000000 0.000000 -6.764325 -7.312775 -1.391682 28.118658 28.162354 -47.408038 -179.728710 40.992663 179.899841 -38.508244 57.187153 -22.749497 0.675749 -2.102282 -0.000000 0.000000 0.000000 0.000000 0.000000 0.000000 0.000000 
4.612084 20.720611 0.586439 21.355267 -79.032478 -1.946362 -3.973461 -1.826623 -14.017628 -1.164231 -1.808463 -5.758421 -3.543795 -1.973076 -1.378715 8.817759 -6.859232 -3.188774 -0.231581 -0.101969 1.336623 0.000000 0.000000 0.000000 18.188377 9.689011 -4.050741 -10.943072 -45.063832 -36.947909 176.938498 -55.257616 179.586846 38.084270 -49.167559 -19.015529 -0.474419 1.988416 -0.000000 0.000000 0.000000 0.000000 0.000000 0.000000 0.000000 -6.866073 -8.011652 -1.310276 26.709070 27.567092 -50.830644 -179.916717 39.508963 179.926235 -40.114248 58.426413 -24.333274 0.715297 -2.155918 -0.000000 0.000000 0.000000 0.000000 0.000000 0.000000 0.000000 
4.430065 20.872096 0.568999 21.067535 -79.104294 -1.942479 -3.920819 -1.834993 -13.885498 -1.148470 -1.822951 -5.708716 -3.454789 -1.993630 -1.212759 8.847647 -7.291158 -3.511598 -0.176394 -0.092773 1.250950 0.000000 0.000000 0.000000 17.863289 10.449851 -4.123985 -8.799248 -44.165448 -40.608002 177.018978 -54.530589 179.606495 38.841104 -49.928021 -19.743117 -0.501081 2.001169 -0.000000 0.000000 0.000000 0.000000 0.000000 0.000000 0.000000 -6.939791 -8.741763 -1.243129 25.438129 27.083244 -54.022301 179.920562 38.350008 179.950368 -41.653478 59.521723 -25.852296 0.748327 -2.198376 -0.000000 0.000000 0.000000 0.000000 0.000000 0.000000 0.000000 
4.252339 21.011056 0.550245 20.870862 -79.248692 -1.994046 -3.834066 -1.833907 -13.727807 -1.129381 -1.833690 -5.653879 -3.389785 -2.009456 -1.053433 8.860735 -7.773946 -3.842255 -0.128751 -0.083802 1.162870 0.000000 0.000000 0.000000 17.519383 11.148585 -4.165740 -6.737404 -43.020013 -44.157008 177.117041 -53.850338 179.627017 39.682553 -50.602307 -20.493197 -0.530569 2.011209 -0.000000 0.000000 0.000000 0.000000 0.000000 0.000000 0.000000 -6.960470 -9.487342 -1.196713 24.283179 26.717796 -56.920952 179.784597 37.492241 179.971661 -43.009352 60.466004 -27.214872 0.773757 -2.230115 -0.000000 0.000000 0.000000 0.000000 0.000000 0.000000 0.000000 
4.077738 21.138642 0.530756 20.683925 -79.464891 -2.017689 -3.707294 -1.821960 -13.565987 -1.105313 -1.839823 -5.597239 -3.349550 -2.019630 -0.899095 8.870009 -8.279386 -4.171184 -0.090066 -0.075348 1.075095 0.000000 0.000000 0.000000 17.178787 11.787197 -4.176414 -4.842549 -41.670000 -47.502932 177.225504 -53.225417 179.647584 40.588782 -51.191575 -21.254761 -0.561575 2.018809 -0.000000 0.000000 0.000000 0.000000 0.000000 0.000000 0.000000 -6.920908 -10.218236 -1.172923 23.223617 26.442918 -59.494186 179.676869 36.908492 179.989684 -44.092928 61.252752 -28.342998 0.791296 -2.251726 -0.000000 0.000000 0.000000 0.000000 0.000000 0.000000 0.000000 
3.905103 21.255134 0.510869 20.479030 -79.752071 -1.980700 -3.546408 -1.798017 -13.418345 -1.076560 -1.839160 -5.541564 -3.330835 -2.022164 -0.747972 8.886973 -8.785105 -4.492232 -0.060339 -0.067558 0.989335 0.000000 0.000000 0.000000 16.860025 12.381814 -4.160519 -3.177045 -40.190858 -50.573832 177.337367 -52.677618 179.667419 41.523469 -51.708325 -22.011411 -0.592070 2.023878 -0.000000 0.000000 0.000000 0.000000 0.000000 0.000000 0.000000 -6.817836 -10.910743 -1.171794 22.236748 26.230690 -61.727365 179.598290 36.570245 -179.995845 -44.850600 61.877711 -29.182968 0.801292 -2.263944 -0.000000 0.000000 0.000000 0.000000 0.000000 0.000000 0.000000 
3.733764 21.361221 0.490926 20.215396 -80.102156 -1.844717 -3.359127 -1.761434 -13.297963 -1.043311 -1.829420 -5.489525 -3.327199 -2.014977 -0.600891 8.915950 -9.263065 -4.798909 -0.037953 -0.060473 0.907373 0.000000 0.000000 0.000000 16.587613 12.939986 -4.123301 -1.799967 -38.659681 -53.309560 177.445781 -52.216802 179.685798 42.443255 -52.156507 -22.738752 -0.620286 2.026319 -0.000000 0.000000 0.000000 0.000000 0.000000 0.000000 0.000000 -6.665870 -11.533144 -1.188967 21.312775 26.024270 -63.628440 179.550196 36.444070 -179.985032 -45.278823 62.335909 -29.716978 0.804868 -2.267571 -0.000000 0.000000 0.000000 0.000000 0.000000 0.000000 0.000000 
3.562832 21.456732 0.471144 19.874740 -80.500888 -1.591026 -3.157294 -1.712697 -13.213454 -1.006550 -1.808971 -5.442890 -3.331014 -1.996650 -0.458238 8.958670 -9.692351 -5.086740 -0.020790 -0.054054 0.830404 0.000000 0.000000 0.000000 16.379126 13.471530 -4.071798 -0.745913 -37.162067 -55.670152 177.545506 -51.851955 179.702147 43.298809 -52.540168 -23.407485 -0.644616 2.026026 -0.000000 0.000000 0.000000 0.000000 0.000000 0.000000 0.000000 -6.483272 -12.062985 -1.218351 20.449787 25.769173 -65.214291 179.532346 36.492768 -179.977790 -45.417313 62.628004 -29.964320 0.803579 -2.263693 -0.000000 0.000000 0.000000 0.000000 0.000000 0.000000 0.000000 
3.391775 21.542707 0.451719 19.428232 -80.927471 -1.195878 -2.951013 -1.653320 -13.168374 -0.967047 -1.777437 -5.402681 -3.335030 -1.966923 -0.321011 9.012396 -10.057635 -5.352139 -0.006661 -0.048234 0.759372 0.000000 0.000000 0.000000 16.244432 13.980763 -4.013233 -0.027888 -35.775390 -57.634865 177.632775 -51.583784 179.716054 44.043721 -52.858285 -23.987517 -0.663999 2.023051 -0.000000 0.000000 0.000000 0.000000 0.000000 0.000000 0.000000 -6.292299 -12.484890 -1.252947 19.652954 25.414051 -66.508279 179.543474 36.680303 -179.973856 -45.341511 62.761268 -29.977073 0.799127 -2.253433 -0.000000 0.000000 0.000000 0.000000 0.000000 0.000000 0.000000 
3.220097 21.619367 0.432883 18.837617 -81.355397 -0.626805 -2.747267 -1.586270 -13.163085 -0.925316 -1.736437 -5.369259 -3.333839 -1.927428 -0.189782 9.072759 -10.351801 -5.593320 0.006142 -0.042935 0.694735 0.000000 0.000000 0.000000 16.183441 14.467798 -3.954371 0.364482 -34.561092 -59.201569 177.705337 -51.402632 179.727291 44.641840 -53.106277 -24.452251 -0.678129 2.017777 -0.000000 0.000000 0.000000 0.000000 0.000000 0.000000 0.000000 -6.113131 -12.795133 -1.286020 18.932087 24.922188 -67.534545 179.579938 36.966774 -179.972796 -45.143880 62.753196 -29.828333 0.793179 -2.238324 -0.000000 0.000000 0.000000 0.000000 0.000000 0.000000 0.000000 
3.047385 21.687733 0.414958 18.053160 -81.755571 0.162422 -2.547451 -1.515404 -13.195740 -0.881057 -1.689310 -5.342561 -3.324342 -1.881418 -0.064784 9.133809 -10.576621 -5.810150 0.018473 -0.038104 0.636518 0.000000 0.000000 0.000000 16.184560 14.928488 -3.900890 0.460871 -33.559970 -60.385953 177.762235 -51.294108 179.735798 45.071497 -53.277604 -24.783191 -0.687287 2.010757 -0.000000 0.000000 0.000000 0.000000 0.000000 0.000000 0.000000 -5.960105 -13.001349 -1.312323 18.294571 24.276538 -68.317228 179.636684 37.318661 -179.974084 -44.913979 62.630234 -29.595187 0.787022 -2.219808 -0.000000 0.000000 0.000000 0.000000 0.000000 0.000000 0.000000 
2.873426 21.748503 0.398339 17.006382 -82.098255 1.235366 -2.346649 -1.445153 -13.261959 -0.832964 -1.640818 -5.322225 -3.305687 -1.833457 0.053493 9.188708 -10.737472 -6.003233 0.030709 -0.033708 0.584568 0.000000 0.000000 0.000000 16.228338 15.353319 -3.856433 0.301924 -32.786905 -61.216977 177.803641 -51.239462 179.741682 45.329876 -53.366222 -24.973632 -0.692298 2.002684 -0.000000 0.000000 0.000000 0.000000 0.000000 0.000000 0.000000 -5.845064 -13.116215 -1.327911 17.749179 23.475245 -68.879904 179.707707 37.702382 -179.977137 -44.722658 62.423728 -29.344228 0.781600 -2.199453 -0.000000 0.000000 0.000000 0.000000 0.000000 0.000000 0.000000 
2.698254 21.802690 0.383402 15.644219 -82.357259 2.638650 -2.137285 -1.380176 -13.353512 -0.779552 -1.596441 -5.307168 -3.279141 -1.788776 0.164660 9.231173 -10.848371 -6.174572 0.042517 -0.029734 0.538338 0.000000 0.000000 0.000000 16.288623 15.734304 -3.823434 -0.060971 -32.239984 -61.736223 177.830491 -51.219142 179.745184 45.431089 -53.371390 -25.030370 -0.694228 1.994304 -0.000000 0.000000 0.000000 0.000000 0.000000 0.000000 0.000000 -5.771499 -13.162765 -1.331705 17.298272 22.544440 -69.244150 179.786531 38.094236 -179.981391 -44.609485 62.168849 -29.121951 0.777228 -2.178544 -0.000000 0.000000 0.000000 0.000000 0.000000 0.000000 0.000000 
2.522070 21.850448 0.370270 13.974509 -82.513995 4.356536 -1.915613 -1.324250 -13.459173 -0.720615 -1.560520 -5.295995 -3.247167 -1.751548 0.267764 9.258300 -10.924008 -6.325997 0.053298 -0.026195 0.497328 0.000000 0.000000 0.000000 16.345612 16.059834 -3.802468 -0.580750 -31.897107 -61.989984 177.844332 -51.213714 179.746664 45.403137 -53.297460 -24.972202 -0.694206 1.986279 -0.000000 0.000000 0.000000 0.000000 0.000000 0.000000 0.000000 -5.737398 -13.163832 -1.323555 16.942313 21.519499 -69.433771 179.867018 38.474707 -179.986331 -44.583850 61.894279 -28.949757 0.773971 -2.158168 -0.000000 0.000000 0.000000 0.000000 0.000000 0.000000 0.000000 
2.345107 21.892258 0.358771 12.069401 -82.556498 6.306921 -1.680251 -1.281143 -13.561303 -0.656640 -1.537395 -5.286005 -3.213241 -1.726047 0.361698 9.268054 -10.982210 -6.459032 0.062809 -0.023075 0.461083 0.000000 0.000000 0.000000 16.379184 16.321137 -3.792756 -1.206908 -31.725395 -62.031827 177.847351 -51.212600 179.746539 45.285895 -53.155637 -24.828428 -0.693229 1.978935 -0.000000 0.000000 0.000000 0.000000 0.000000 0.000000 0.000000 -5.739454 -13.145245 -1.305422 16.684371 20.455041 -69.469543 179.943639 38.835166 -179.991551 -44.623377 61.624020 -28.824741 0.771378 -2.138937 -0.000000 0.000000 0.000000 0.000000 0.000000 0.000000 0.000000 
2.167886 21.927953 0.348353 10.089276 -82.484985 8.314786 -1.440100 -1.253345 -13.639823 -0.590821 -1.529276 -5.274030 -3.181515 -1.714673 0.445005 9.263256 -11.039711 -6.574792 0.070631 -0.020377 0.429235 0.000000 0.000000 0.000000 16.381373 16.510214 -3.792656 -1.896648 -31.684999 -61.911870 177.841820 -51.202740 179.745277 45.120964 -52.963329 -24.633043 -0.692166 1.972657 -0.000000 0.000000 0.000000 0.000000 0.000000 0.000000 0.000000 -5.768495 -13.130758 -1.280026 16.526274 19.410272 -69.373958 -179.988306 39.171953 -179.996706 -44.690084 61.372243 -28.728306 0.768972 -2.121200 -0.000000 0.000000 0.000000 0.000000 0.000000 0.000000 0.000000 
1.990856 21.957361 0.338043 8.244551 -82.310734 10.155377 -1.213992 -1.242400 -13.676001 -0.528670 -1.536424 -5.257165 -3.155760 -1.718138 0.515769 9.251482 -11.106271 -6.672972 0.076255 -0.018138 0.401817 0.000000 0.000000 0.000000 16.355944 16.617577 -3.799840 -2.617612 -31.731696 -61.674033 177.830141 -51.178874 179.743310 44.944753 -52.740284 -24.417550 -0.691568 1.967550 -0.000000 0.000000 0.000000 0.000000 0.000000 0.000000 0.000000 -5.811644 -13.134838 -1.249678 16.467810 18.434894 -69.171532 -179.932121 39.481606 179.998448 -44.742478 61.140314 -28.633444 0.766504 -2.105183 -0.000000 0.000000 0.000000 0.000000 0.000000 0.000000 0.000000 
1.814322 21.980144 0.327019 6.694098 -82.045829 11.660249 -1.016390 -1.251069 -13.654224 -0.474398 -1.560819 -5.232360 -3.139936 -1.738841 0.573844 9.239220 -11.196605 -6.754235 0.079203 -0.016372 0.378596 0.000000 0.000000 0.000000 16.301162 16.645740 -3.812517 -3.334133 -31.834453 -61.358147 177.814772 -51.139617 179.741057 44.786374 -52.513591 -24.212450 -0.691658 1.963793 -0.000000 0.000000 0.000000 0.000000 0.000000 0.000000 0.000000 -5.854810 -13.178998 -1.219480 16.507415 17.595272 -68.879736 -179.890733 39.772284 179.994077 -44.732088 60.930798 -28.509254 0.763373 -2.090705 -0.000000 0.000000 0.000000 0.000000 0.000000 0.000000 0.000000 
